<?xml version="1.0" encoding="utf-8"?>
<!-- Svg Vector Icons : http://www.onlinewebfonts.com/icon -->
<!DOCTYPE svg PUBLIC "-//W3C//DTD SVG 1.1//EN" "http://www.w3.org/Graphics/SVG/1.1/DTD/svg11.dtd">
<svg version="1.1" xmlns="http://www.w3.org/2000/svg" xmlns:xlink="http://www.w3.org/1999/xlink" x="0px" y="0px" viewBox="0 0 1000 1000" enable-background="new 0 0 1000 1000" xml:space="preserve">
<metadata> Svg Vector Icons : http://www.onlinewebfonts.com/icon </metadata>
<g><g><path d="M975,473.7c-72-73.4-404.9-57.7-490.8,6.1c-2.8,2.1-5.2,3.9-7.8,5.8c-1-1.1-1.6-2.2-1.3-3.2c2.2-8,22.1-14.4,22.3-14.4c8.7-2.8,16.3-8.8,20.8-17.5c5.5-10.7,5-22.8-0.2-32.7c31.6-46,78.2-105,114-112.4c6-1.2,11.3-0.8,16.1,0.9c-1.8,1-3.4,2.5-4.4,4.5c-2.4,5.2-0.1,11.4,5.1,13.8c5.2,2.4,11.4,0.2,13.8-5c2.4-5.1,0.2-11-4.7-13.5l0.1,0c-0.1-0.1-0.3-0.2-0.4-0.3c-7.6-5.5-16.5-7.3-26.6-5.2c-37.3,7.7-84.1,66.2-116,112.6c-3.1-4.2-7.1-7.8-12-10.3c-4.8-2.5-10-3.6-15.1-3.8c18.3-63.7,35-154.7-7.7-184.2c-0.9-0.8-1.8-1.7-3-2.2c-0.2-0.1-0.5-0.1-0.7-0.2c-0.3-0.2-0.6-0.4-0.8-0.5l-0.2,0.3c-4.8-1.3-9.9,0.8-12.1,5.5c-2.4,5.2-0.1,11.4,5.1,13.9c5.2,2.4,11.4,0.1,13.8-5.1c0.4-1,0.6-2,0.7-3c32.9,32.1,16.7,116.2-0.5,175.7c-11.2,1.3-21.7,8-27.3,18.9c-4.5,8.7-5,18.4-2.2,27.1c0,0.1,2.6,13.9,0,22.3c-0.6-3.7-1.1-7.6-1.7-11.7c-14.6-106-236.2-354.9-339-354.9c-11.6,0-21.7,2.9-30.6,9.1c-44.6,39.3-34.7,217.1-19.7,262c8.5,25.4,25.2,40.4,39.4,49c-23.5,2.5-57.2,11.1-76.6,39c-0.8,0-1.4,0-2,0l0,3.1c-6.8,10.9-10.8,23.6-12.3,38c-0.1,0.3-0.4,0.6-0.5,0.9l0.3,0.1c-2.6,28.3,4.9,63.1,22.6,104.2c41.1,95.2,112.5,115.1,165.2,115.1l0,0c53.7,0,109-20.9,151.6-48.8c-15.3,42-31.8,82.1-42.3,108.6c13.2-25.6,49.1-79.6,87.7-130.4c-1,60.3,24.6,143.2,76.3,196l0,0c36.9,37.6,101.1,74.7,197.9,37.5c41.8-16.1,71.8-35.1,90.3-56.7l0.3,0.1c0.2-0.3,0.2-0.7,0.3-0.9c9.3-11.1,15.6-22.9,18.6-35.4l2.2-2.2c-0.4-0.4-0.8-0.8-1.5-1.4c6.4-33.4-10.9-63.6-25.7-82.1c16.1,4.2,38.4,5.6,62.5-6.1c42.6-20.8,176.6-138.1,173.4-197.4C988.1,491.2,983.1,481.9,975,473.7z M61.8,215.8c27.5,17,120.1,72.3,162.1,76.3c12.2,13.3,22.4,23.4,28.3,27.4c4.4,3,12.6,10.3,23.1,20.1c-79.9-13.9-194.9-67-214.5-76.3C60.5,247.5,60.8,231.4,61.8,215.8z M289.2,352.8c8.8,8.5,18.5,18,28.5,28L182,325.3C218.7,338.2,257.4,349.3,289.2,352.8z M31.2,470.9c43.2,0.7,131.3,3.3,162.9,10.6c-13.3,0.9-31.9,1.6-49.1,2.3c-70.9,2.8-105.8,5.3-122.2,9.8C24.4,485.2,27.2,477.7,31.2,470.9z M24.9,545.9l3.5-0.2c0.4-8.4,48.3-31.8,102.7-50.2c5-0.2,9.8-0.4,14.2-0.6c48.8-1.9,65.1-2.8,71.1-5.2c16.1,5.4,34.1,8.2,49.2,8.5c-20.9,13.1-58.7,32.1-97,29C116.5,523,52.8,561.9,33.1,575C29.6,564.8,26.9,555.1,24.9,545.9z M87.3,667.1c-12.4-11.9-23.9-26.9-34.1-45.6c17-10.3,79.3-46.4,111.8-46.9c10.4-0.2,22.7,0.2,35.7,0.7c5.8,0.2,11.8,0.4,17.8,0.6C176.6,620,110.8,677.4,87.3,667.1z M339.7,585.6c-37.2,41.6-84.5,88.6-121.9,123.4c-6.4,0.6-12.9,1-19.4,1c0,0,0,0,0,0c-11.6,0-24.3-1.1-37.3-3.9c58.4-27,131.7-124.4,141.2-137.3c1.7-0.5,3.5-1,5.1-1.6c14.7-5.4,32.9-15.7,49.8-26.4C344.7,559.2,334.6,575.7,339.7,585.6z M233.9,526.9c28.2-11.1,49.3-26.6,54.4-30.6c10.3-1.9,46.9-0.9,86.1,1.2C347.5,510,293.5,530.3,233.9,526.9z M389.4,477.7l-134.6-59.3c-68.3-30-153.4-28.1-170-27.3c-4.8-6.3-9.1-13.8-12.1-22.9c-2.9-8.8-5.5-22.2-7.6-38.2c35.6,15.7,152.7,64.7,227.5,64.7c12.8,0,24.3-1.6,34-4.8c22,22,45,45.4,63.6,64.6c-1.9,2.9-3.2,6.4-3.4,10.9C388.9,469,389.6,473.2,389.4,477.7z M398.8,447.2c-47-48.2-122-124.3-140.4-136.9c-17.2-11.8-78.2-84.7-121.2-137.7c8.8-1.3,17.6-2.3,26.3-2.8C191.4,193,295.1,279.5,324.1,315c20.6,25.2,55.3,86.9,79,130.7C401.6,446.1,400.2,446.6,398.8,447.2z M673.7,472.5c45.5-4.1,180.1,9.4,216.1,13.2c5.6,6.5,11.1,13.5,16.3,20.7c-68,6.4-162.8,13.8-183.2,9.7c-21.8-4.3-128.7-4.7-196-4.5c-0.5-1.4-1.1-2.8-1.8-4.2C573,493.8,641.3,475.5,673.7,472.5z M479.5,838.7L479.5,838.7c-4.5-4.6-8.8-9.5-12.8-14.6c-1.4-51.1-0.9-117.7,2.8-173.4c10.6-3.3,15.3-22.1,19.8-43.8c4.2,19.5,9.6,39.7,16,54c0.7,1.6,1.6,3.1,2.5,4.7c-2.5,15.9-20.9,136.4,0.7,197C497.3,855.3,487.7,847,479.5,838.7z M508.2,564.3c28.9,26.5,55.2,51.9,61.2,60.6c0.7,6.5,4.4,32.4,16.1,60.3C541.3,645,518,592.2,508.2,564.3z M587.9,888.1c-23.8-9.6-28.8-96.8-26.5-157.7c4.4,4.2,8.6,8.3,12.9,12.4c9.4,9,18.3,17.4,25.4,25c22.3,23.6,40.2,93.4,44.7,112.7C623.9,886.3,605.1,888.6,587.9,888.1z M691.5,862.3c-4.5-23.2-21.1-96-60.7-130.3c-29-25.2-41.8-65.6-47.1-89.7c10.8,10.7,25.4,21.5,40.6,29.3c2.5,5.9,13.2,18.3,46,54.5c3,3.3,6.2,6.9,9.5,10.6c24.9,51.7,41.7,102.3,36,108.5l2.3,2.7C710.1,852.8,701.3,857.7,691.5,862.3z M704.8,764.6c22,24.9,42.3,49.5,44.7,57.8L704.8,764.6z M767.3,790.9c-2.1,7.5-5.5,14.8-10.3,21.9c-8.3-14.9-30.9-41.5-78.5-94.1c-11.6-12.8-24-26.6-32.7-36.7C673,699.5,736.7,760.5,767.3,790.9z M811.6,689.3c-8.6,4.2-17,6.4-24.8,7.4c-11-12.3-69.2-74.6-138.5-102.3l-125.9-61.5c3.1-3.3,4.7-6.7,5.4-10c26.7-0.1,59.5,0,90.6,0.3c4.5,9.3,11.4,18.5,20.3,27.7c52.3,53.4,169.3,102.8,205.4,117.3C831.4,677.7,820.1,685.2,811.6,689.3z M894.9,624.5c-20.4-7.6-138.8-52.5-204.7-99.9c14.4,0.7,25.2,1.5,30.5,2.5c7,1.4,21.3,1.6,39.3,1c32.3,27.2,136.6,54.6,168,62.4C917.7,602.1,906.4,613.6,894.9,624.5z"/></g><g></g><g></g><g></g><g></g><g></g><g></g><g></g><g></g><g></g><g></g><g></g><g></g><g></g><g></g><g></g></g>
</svg>